<svg width="1920" height="1080" viewBox="0 0 1920 1080" fill="none" xmlns="http://www.w3.org/2000/svg">
<g clip-path="url(#clip0_3_120)">
<path d="M1590.21 190.328C1587.68 184.227 1579.85 182.297 1573.73 181.752C1565.82 181.049 1555.51 182.076 1543.91 184.723C1543.8 184.749 1543.69 184.786 1543.59 184.827C1536.88 180.381 1529.08 178.028 1520.99 178.028C1501.21 178.028 1484.66 192.116 1480.84 210.784C1458.77 224.584 1447.91 238.358 1451.77 247.672C1454.17 253.474 1461.55 256.471 1473.27 256.471C1475.39 256.471 1477.64 256.374 1480.03 256.178C1485.7 255.713 1491.9 254.701 1498.43 253.197C1505.13 257.627 1512.91 259.972 1520.99 259.972C1540.47 259.972 1557.26 246.232 1561.13 227.222C1566.8 223.675 1571.9 220.009 1576.24 216.325C1588.22 206.163 1593.05 197.173 1590.21 190.328ZM1520.99 182.564C1528.39 182.564 1535.51 184.769 1541.59 188.941C1547.28 192.849 1551.7 198.223 1554.43 204.519C1554.02 205.126 1552.21 207.245 1545.02 211.403C1538.96 214.91 1530.92 218.791 1522.37 222.333C1513.82 225.875 1505.39 228.819 1498.62 230.624C1490.58 232.769 1487.81 232.544 1487.1 232.405C1485.41 228.141 1484.55 223.633 1484.55 219C1484.55 198.909 1500.9 182.564 1520.99 182.564ZM1520.99 255.436C1515.29 255.436 1509.76 254.122 1504.74 251.616C1513.14 249.347 1521.95 246.333 1530.79 242.671C1539.64 239.008 1548 234.906 1555.55 230.566C1550.66 245.229 1536.82 255.436 1520.99 255.436ZM1573.31 212.867C1562.49 222.045 1546.78 231.142 1529.06 238.481C1511.34 245.82 1493.79 250.5 1479.66 251.657C1466.74 252.715 1457.88 250.577 1455.96 245.937C1453.73 240.57 1460.44 229.594 1480.08 216.659C1480.04 217.434 1480.02 218.214 1480.02 219C1480.02 219.894 1480.05 220.783 1480.1 221.667C1471.64 227.565 1462.51 235.73 1465.16 242.126C1466.14 244.495 1468.5 246.066 1472.16 246.797C1472.31 246.827 1472.46 246.842 1472.61 246.842C1473.67 246.842 1474.62 246.095 1474.83 245.017C1475.08 243.788 1474.28 242.594 1473.05 242.349C1471.02 241.944 1469.7 241.249 1469.35 240.39C1468.89 239.276 1469.79 237.183 1471.78 234.791C1473.78 232.387 1476.85 229.648 1480.75 226.78C1481.25 229.371 1482 231.908 1483 234.372C1483.07 234.547 1483.16 234.704 1483.27 234.851C1483.98 236.311 1485.55 237.035 1488.29 237.035C1490.6 237.035 1493.73 236.52 1497.87 235.5C1505.15 233.704 1514.46 230.516 1524.1 226.523C1533.74 222.53 1542.59 218.196 1549 214.32C1555.28 210.524 1558.41 207.765 1558.96 205.382C1559.19 204.845 1559.22 204.22 1558.98 203.635C1557.9 200.954 1556.54 198.417 1554.94 196.051C1559.71 195.321 1563.81 195.085 1566.92 195.368C1570.03 195.652 1572.17 196.491 1572.63 197.609C1573.1 198.75 1572.21 201.371 1568.27 205.301C1567.39 206.187 1567.39 207.623 1568.27 208.508C1568.72 208.951 1569.3 209.173 1569.88 209.173C1570.46 209.173 1571.04 208.952 1571.48 208.509C1576.44 203.55 1578.24 199.298 1576.82 195.874C1574.17 189.484 1561.96 190.159 1551.79 191.975C1550.69 190.723 1549.51 189.539 1548.26 188.424C1568.39 184.308 1583.38 185.691 1586.02 192.063C1587.94 196.703 1583.19 204.48 1573.31 212.867Z" fill="#FFD36E"/>
<path d="M1546.51 220.452C1540.09 223.969 1533.09 227.306 1525.7 230.369C1509.38 237.129 1493.48 241.57 1482.09 242.553C1480.84 242.661 1479.92 243.76 1480.02 245.008C1480.13 246.189 1481.12 247.08 1482.28 247.08C1482.35 247.08 1482.41 247.078 1482.48 247.072C1494.32 246.051 1510.7 241.49 1527.43 234.559C1534.98 231.433 1542.13 228.024 1548.69 224.428C1549.78 223.826 1550.19 222.447 1549.58 221.349C1548.98 220.252 1547.6 219.849 1546.51 220.452Z" fill="#FFD36E"/>
<path d="M1560.78 211.545C1559.36 212.576 1557.82 213.631 1556.2 214.681C1555.15 215.363 1554.86 216.768 1555.54 217.818C1555.97 218.486 1556.7 218.85 1557.44 218.85C1557.87 218.85 1558.29 218.731 1558.68 218.483C1560.35 217.392 1561.96 216.293 1563.44 215.217C1564.46 214.482 1564.68 213.064 1563.95 212.05C1563.21 211.036 1561.79 210.81 1560.78 211.545Z" fill="#FFD36E"/>
<path d="M1511.31 193.892C1511.56 193.892 1511.82 193.85 1512.07 193.762C1513.51 193.251 1515.01 192.863 1516.53 192.61C1517.76 192.402 1518.59 191.233 1518.39 189.998C1518.18 188.762 1517.01 187.929 1515.77 188.136C1514 188.433 1512.25 188.887 1510.56 189.485C1509.37 189.903 1508.76 191.198 1509.17 192.379C1509.5 193.31 1510.38 193.892 1511.31 193.892Z" fill="#FFD36E"/>
<path d="M1525.45 192.61C1531.46 193.618 1537.01 196.705 1541.06 201.303C1541.51 201.811 1542.13 202.07 1542.76 202.07C1543.3 202.07 1543.83 201.883 1544.26 201.503C1545.2 200.674 1545.29 199.241 1544.46 198.302C1539.72 192.927 1533.23 189.316 1526.2 188.137C1524.97 187.93 1523.8 188.762 1523.59 189.998C1523.38 191.233 1524.22 192.402 1525.45 192.61Z" fill="#FFD36E"/>
</g>
<defs>
<clipPath id="clip0_3_120">
<rect width="140" height="140" fill="white" transform="translate(1451 149)"/>
</clipPath>
</defs>
</svg>
