<svg width="1920" height="1080" viewBox="0 0 1920 1080" fill="none" xmlns="http://www.w3.org/2000/svg">
<path d="M271.23 889.773C271.23 850.14 241.08 817.897 204.02 817.897C166.959 817.897 136.809 850.14 136.809 889.773C136.809 929.405 166.959 961.649 204.019 961.649C241.08 961.649 271.23 929.405 271.23 889.773ZM144.195 889.773C144.195 854.496 171.032 825.796 204.02 825.796C237.007 825.796 263.844 854.496 263.844 889.773C263.844 925.05 237.007 953.75 204.02 953.75C171.032 953.75 144.195 925.05 144.195 889.773Z" fill="#F9B208"/>
<path d="M250.211 879.426C250.87 882.806 251.204 886.287 251.204 889.773C251.204 891.954 252.857 893.722 254.897 893.722C256.937 893.722 258.59 891.954 258.59 889.773C258.59 885.747 258.204 881.724 257.443 877.816C257.027 875.68 255.071 874.31 253.074 874.754C251.077 875.199 249.796 877.291 250.211 879.426Z" fill="#F9B208"/>
<path d="M246.087 866.894C246.74 868.264 248.036 869.051 249.38 869.051C249.945 869.051 250.518 868.913 251.055 868.62C252.872 867.629 253.594 865.251 252.668 863.308C243.293 843.635 224.652 831.415 204.02 831.415C201.98 831.415 200.326 833.183 200.326 835.364C200.326 837.546 201.98 839.314 204.02 839.314C221.86 839.314 237.98 849.882 246.087 866.894Z" fill="#F9B208"/>
<path d="M181.581 812.341C181.926 812.341 182.278 812.289 182.625 812.18C189.541 810.003 196.738 808.899 204.019 808.899C206.059 808.899 207.712 807.131 207.712 804.95C207.712 802.768 206.059 801 204.019 801C196.032 801 188.132 802.212 180.54 804.602C178.583 805.218 177.463 807.414 178.039 809.506C178.513 811.226 179.985 812.341 181.581 812.341Z" fill="#F9B208"/>
<path d="M124.702 893.722C126.741 893.722 128.395 891.954 128.395 889.773C128.395 859.376 144.097 831.823 169.373 817.865C171.186 816.864 171.896 814.482 170.96 812.544C170.024 810.606 167.797 809.846 165.984 810.847C152.655 818.207 141.416 829.308 133.482 842.949C125.322 856.979 121.008 873.171 121.008 889.773C121.008 891.954 122.662 893.722 124.702 893.722Z" fill="#F9B208"/>
<path d="M113.903 906.194C115.926 905.918 117.357 903.939 117.098 901.776C116.626 897.823 116.386 893.785 116.386 889.773C116.386 887.591 114.733 885.823 112.693 885.823C110.653 885.823 109 887.591 109 889.773C109 894.119 109.26 898.494 109.771 902.777C110.009 904.771 111.599 906.226 113.43 906.226C113.586 906.226 113.744 906.215 113.903 906.194Z" fill="#F9B208"/>
<path d="M119.7 915.393C119.144 913.294 117.101 912.075 115.14 912.67C113.177 913.265 112.038 915.449 112.594 917.548C116.844 933.577 124.85 948.411 135.746 960.447C136.47 961.247 137.435 961.649 138.4 961.649C139.325 961.649 140.251 961.28 140.969 960.538C142.434 959.02 142.472 956.52 141.053 954.953C131.003 943.851 123.619 930.171 119.7 915.393Z" fill="#F9B208"/>
<path d="M224.466 967.366C217.55 969.543 210.353 970.646 203.072 970.646C201.032 970.646 199.379 972.415 199.379 974.596C199.379 976.777 201.032 978.545 203.072 978.545C211.059 978.545 218.959 977.334 226.551 974.943C228.508 974.327 229.628 972.132 229.052 970.039C228.475 967.947 226.422 966.751 224.466 967.366Z" fill="#F9B208"/>
<path d="M282.389 885.823C280.35 885.823 278.696 887.591 278.696 889.773C278.696 920.169 262.994 947.723 237.718 961.68C235.905 962.681 235.195 965.063 236.131 967.001C236.787 968.36 238.077 969.14 239.415 969.14C239.986 969.14 240.565 968.998 241.107 968.698C254.436 961.338 265.675 950.237 273.61 936.596C281.77 922.566 286.083 906.374 286.083 889.772C286.082 887.591 284.429 885.823 282.389 885.823Z" fill="#F9B208"/>
<path d="M297.32 876.769C297.061 874.605 295.21 873.076 293.188 873.351C291.165 873.628 289.734 875.606 289.993 877.77C290.465 881.722 290.705 885.76 290.705 889.773C290.705 891.954 292.358 893.722 294.398 893.722C296.438 893.722 298.091 891.954 298.091 889.773C298.091 885.427 297.831 881.051 297.32 876.769Z" fill="#F9B208"/>
<path d="M291.951 866.875C293.913 866.28 295.053 864.096 294.497 861.998C290.247 845.969 282.241 831.134 271.345 819.098C269.926 817.531 267.587 817.491 266.122 819.008C264.657 820.525 264.619 823.025 266.038 824.592C276.088 835.694 283.472 849.374 287.391 864.153C287.852 865.891 289.332 867.025 290.942 867.025C291.275 867.026 291.615 866.977 291.951 866.875Z" fill="#F9B208"/>
</svg>
