<svg width="1920" height="1080" viewBox="0 0 1920 1080" fill="none" xmlns="http://www.w3.org/2000/svg">
<path d="M339.284 424.716C331.729 417.161 321.684 413 311 413C300.316 413 290.271 417.161 282.716 424.716C275.161 432.271 271 442.316 271 453C271 463.684 275.161 473.729 282.716 481.284C290.271 488.839 300.316 493 311 493C321.684 493 331.729 488.839 339.284 481.284C346.839 473.729 351 463.684 351 453C351 442.316 346.839 432.271 339.284 424.716ZM316.232 419.215H325.613C334.913 423.253 342.23 431.021 345.669 440.62H339.019C337.648 440.62 336.423 441.439 335.898 442.706C335.373 443.973 335.661 445.418 336.63 446.388L337.156 446.914C337.895 447.653 337.895 448.855 337.156 449.594C336.81 449.94 336.35 450.131 335.86 450.131C335.371 450.131 334.911 449.94 334.565 449.594L333.295 448.324C331.202 446.231 328.418 445.078 325.458 445.078H324.439V443.798C324.439 440.727 323.243 437.841 321.072 435.67L319.486 434.084C317.858 432.456 315.694 431.56 313.391 431.56H310.215C308.985 431.56 307.828 432.039 306.958 432.909L306.134 433.732C305.264 434.602 304.785 435.759 304.785 436.99C304.785 437.405 304.447 437.743 304.031 437.743H302.651V435.807C302.651 434.428 303.188 433.132 304.162 432.158L305.094 431.226C305.93 430.39 306.39 429.279 306.39 428.098V427.775C306.39 427.712 306.441 427.661 306.504 427.661H322.076C324.053 427.661 325.661 426.052 325.661 424.075C325.661 422.098 324.053 420.49 322.076 420.49H316.232C315.88 420.49 315.594 420.204 315.594 419.853C315.594 419.501 315.88 419.215 316.232 419.215ZM328.167 459.444L327.298 460.318C325.898 461.726 324.67 463.303 323.647 465.005L322.066 467.634L320.089 470.9C319.356 472.112 318.968 473.501 318.968 474.918V475.016C318.968 475.091 318.907 475.152 318.832 475.152C318.832 475.152 318.831 475.152 318.831 475.152C318.455 475.152 318.102 475.006 317.836 474.74C317.569 474.474 317.423 474.12 317.423 473.744C317.423 471.739 316.642 469.854 315.225 468.437L314.493 467.705C313.386 466.598 312.776 465.126 312.776 463.56V458.863C312.776 456.504 310.857 454.584 308.497 454.584H307.94C306.61 454.584 305.527 453.502 305.527 452.171V449.726C305.527 448.286 306.698 447.115 308.138 447.115H320.869L324.709 450.956C325.666 451.912 326.193 453.184 326.193 454.537V456.364C326.193 457.728 327.003 458.907 328.167 459.444ZM274.187 453C274.187 451.495 274.28 450.012 274.457 448.553H279.336C280.954 448.553 282.475 449.184 283.619 450.328L285.018 451.727C286.218 452.926 287.813 453.587 289.509 453.587C290.41 453.587 291.256 453.938 291.893 454.574L291.924 454.605C293.076 455.758 293.711 457.29 293.711 458.921V461.771C293.711 463.943 292.865 465.985 291.329 467.521L288.278 470.573C286.135 472.715 284.781 475.435 284.36 478.382C278.06 471.773 274.187 462.83 274.187 453ZM311 489.813C302.03 489.813 293.8 486.586 287.407 481.235V480.371C287.407 477.521 288.516 474.842 290.531 472.827L293.583 469.775C295.721 467.637 296.898 464.795 296.898 461.771V458.921C296.898 456.439 295.932 454.106 294.177 452.351L294.146 452.321C292.908 451.082 291.261 450.4 289.509 450.4C288.664 450.4 287.87 450.071 287.272 449.473L285.873 448.074C284.127 446.328 281.805 445.366 279.336 445.366H274.985C278.51 428.719 293.318 416.187 311 416.187C312.234 416.187 313.454 416.249 314.657 416.369C313.331 416.97 312.407 418.305 312.407 419.853C312.407 421.962 314.123 423.677 316.232 423.677H322.076C322.295 423.677 322.474 423.856 322.474 424.076C322.474 424.295 322.295 424.474 322.076 424.474H306.504C304.684 424.474 303.203 425.955 303.203 427.775V428.098C303.203 428.428 303.074 428.739 302.841 428.972L301.909 429.905C300.332 431.481 299.464 433.578 299.464 435.807V437.97C299.464 439.603 300.792 440.931 302.425 440.931H304.031C306.204 440.931 307.972 439.163 307.972 436.99C307.972 436.611 308.12 436.255 308.388 435.987L309.211 435.163C309.244 435.131 309.277 435.1 309.312 435.071C309.339 435.102 309.365 435.133 309.395 435.163L312.571 438.339C311.96 438.963 311.964 439.963 312.582 440.581C312.893 440.892 313.301 441.048 313.709 441.048C314.117 441.048 314.525 440.892 314.836 440.581L315.951 439.466C316.574 438.843 316.574 437.834 315.951 437.212L313.489 434.75C314.903 434.775 316.23 435.336 317.232 436.338L318.818 437.924C320.387 439.493 321.251 441.579 321.251 443.798V443.928H308.138C304.941 443.928 302.34 446.529 302.34 449.726V452.171C302.34 455.259 304.852 457.772 307.94 457.772H308.497C309.099 457.772 309.589 458.261 309.589 458.863V463.561C309.589 465.978 310.53 468.25 312.239 469.959L312.97 470.691C313.786 471.506 314.235 472.591 314.235 473.744C314.235 474.972 314.713 476.126 315.582 476.995C316.45 477.862 317.604 478.34 318.83 478.34C318.831 478.34 318.832 478.34 318.833 478.34C320.665 478.339 322.155 476.848 322.155 475.016V474.918C322.155 474.083 322.384 473.265 322.816 472.551L324.794 469.284C324.794 469.282 324.795 469.281 324.796 469.279L326.378 466.647C327.269 465.165 328.339 463.792 329.558 462.565L331.335 460.778C332.04 460.069 332.248 459.013 331.864 458.089C331.479 457.164 330.584 456.567 329.583 456.567C329.471 456.567 329.38 456.476 329.38 456.364V454.538C329.38 452.333 328.522 450.261 326.963 448.702L326.61 448.349C328.282 448.592 329.825 449.362 331.041 450.578L332.311 451.848C333.29 452.827 334.575 453.316 335.861 453.316C337.146 453.316 338.431 452.827 339.41 451.848C340.37 450.888 340.898 449.612 340.898 448.254C340.898 446.897 340.37 445.62 339.41 444.66L338.884 444.134C338.852 444.103 338.794 444.044 338.843 443.926C338.891 443.808 338.975 443.808 339.019 443.808H346.651C347.409 446.747 347.813 449.827 347.813 453C347.813 473.299 331.299 489.813 311 489.813Z" fill="#82CD47"/>
<path d="M300.323 426.546C301.203 426.546 301.916 425.832 301.916 424.952V421.684C301.916 420.804 301.203 420.091 300.323 420.091C299.443 420.091 298.729 420.804 298.729 421.684V424.952C298.729 425.832 299.443 426.546 300.323 426.546Z" fill="#82CD47"/>
<path d="M342.775 463.14C341.95 462.833 341.033 463.252 340.725 464.077C336.124 476.42 324.178 484.713 311 484.713C310.12 484.713 309.406 485.427 309.406 486.307C309.406 487.187 310.12 487.9 311 487.9C318.258 487.9 325.216 485.693 331.123 481.518C336.898 477.436 341.251 471.79 343.712 465.19C344.019 464.366 343.6 463.448 342.775 463.14Z" fill="#82CD47"/>
<path d="M303.26 483.762C301.712 483.374 300.181 482.863 298.71 482.244C297.898 481.903 296.964 482.284 296.623 483.095C296.281 483.906 296.662 484.841 297.474 485.182C299.094 485.864 300.78 486.426 302.485 486.854C302.615 486.887 302.745 486.902 302.874 486.902C303.587 486.902 304.237 486.419 304.418 485.696C304.632 484.842 304.114 483.976 303.26 483.762Z" fill="#82CD47"/>
</svg>
